<?xml version="1.0" encoding="utf-8"?>
<!-- Generator: Adobe Illustrator 19.2.1, SVG Export Plug-In . SVG Version: 6.00 Build 0)  -->
<svg version="1.1" id="Layer_1" xmlns="http://www.w3.org/2000/svg" xmlns:xlink="http://www.w3.org/1999/xlink" x="0px" y="0px"
	 viewBox="0 0 400 140" style="enable-background:new 0 0 400 140;" xml:space="preserve">
<g>
	<path d="M160,45h-8.4V17.4h8.4c9.8,0,13.7,5.8,13.7,13.5S170,45,160,45z M160,21.7h-3.3v19h3.3c5.8,0,8.5-3.3,8.5-9.8
		C168.5,24.7,165.8,21.7,160,21.7z"/>
	<path d="M179.4,45V17.4h5.1v27.7L179.4,45L179.4,45z"/>
	<path d="M202.8,45.6c-8.8,0-12.1-5.6-12.1-14.4c0-8,2.8-14.4,12.1-14.4c6.9,0,10.3,4.2,10.7,9.1h-4.6c-0.3-2.6-2.3-4.7-6.1-4.7
		c-5.5,0-6.9,3.6-6.9,10c0,6,1.3,10.1,6.9,10.1c2,0,4.3-0.7,5.5-1.5V35c0-0.3,0.1-0.5,0.2-0.8h-5.3l-1.2-4.3h11.4v11.6
		C211.2,43.4,207.7,45.6,202.8,45.6z"/>
	<path d="M220.3,45V17.4h5.1v27.7L220.3,45L220.3,45z"/>
	<path d="M244.2,21.7v23.4H239V21.7h-7.9v-4.3h21v4.3H244.2z"/>
	<path d="M271.7,45l-2.4-7h-9.7l-2.4,7h-5.3l10-27.7h5.3l10,27.7H271.7z M265,25.5c-0.3-0.7-0.5-1.7-0.6-2.2
		c-0.1,0.5-0.3,1.5-0.5,2.2l-2.8,8.3h6.8L265,25.5z"/>
	<path d="M282.2,45V17.4h5.1v23h11.1v4.7L282.2,45L282.2,45z"/>
</g>
<g>
	<path d="M161.8,83.2c-5.7,0-8.5-2.7-10.2-5.5l4.3-2.2c1.2,1.8,3,3.3,6,3.3c4.3,0,5.6-1.8,5.6-4.3c0-1.8-0.8-3.1-3.3-3.5l-5.6-0.9
		c-4-0.7-6.6-2.8-6.6-7.8c0-4,2.8-7.9,10.1-7.9c5.7,0,8.2,2.1,10,5l-4.3,2.2c-1.2-1.8-2.8-2.8-5.7-2.8c-3.7,0-5,1.4-5,3.5
		c0,2,0.7,2.6,2.6,2.9l5.5,0.9c4.1,0.7,7.5,2.8,7.5,8.4C172.7,79.5,169.4,83.2,161.8,83.2z"/>
	<path d="M189.1,83.1c-9.6,0-11.7-6.6-11.7-14.7c0-7.4,2.2-14.1,11.7-14.1c9.6,0,11.9,6.8,11.9,14.1
		C200.9,76.6,198.6,83.1,189.1,83.1z M189.1,58.7c-5.1,0-6.5,3.2-6.5,9.7c0,7.3,1.5,10.4,6.5,10.4c5.1,0,6.6-3.1,6.6-10.4
		C195.7,61.9,194.2,58.7,189.1,58.7z"/>
	<path d="M218,83.2c-9.6,0-11.8-6.9-11.8-14.5c0-8.5,2.9-14.4,11.8-14.4c6.9,0,10.1,4.1,10.4,9.1h-4.9c-0.4-3-1.8-4.7-5.6-4.7
		c-5.5,0-6.6,3.6-6.6,10c0,5.8,0.9,10.2,6.6,10.2c2.7,0,5-1,6.8-4.5l3.8,2.3C227.1,80.3,224,83.2,218,83.2z"/>
	<path d="M234.3,82.6V54.9h5.1v27.7C239.4,82.6,234.3,82.6,234.3,82.6z"/>
	<path d="M264.4,82.6l-2.4-7h-9.7l-2.4,7h-5.3l10-27.7h5.3l10,27.7H264.4z M257.7,63c-0.3-0.7-0.5-1.7-0.6-2.2
		c-0.1,0.5-0.3,1.5-0.5,2.2l-2.8,8.3h6.8L257.7,63z"/>
	<path d="M274.8,82.6V54.9h5.1v23h11.2v4.7H274.8L274.8,82.6z"/>
</g>
<g>
	<path d="M151.6,118.9V93.4h5.1v25.5H151.6z"/>
	<path d="M182.2,118.9l-13.6-16.3c0.1,0.4,0.2,0.8,0.2,1.1v15.2h-5.1V93.4h4.4l13.6,16.4c-0.2-0.5-0.2-1.1-0.2-1.7V93.4h5.1v25.5
		H182.2L182.2,118.9z"/>
	<path d="M212,118.9l-13.6-16.3c0.1,0.4,0.1,0.8,0.1,1.1v15.2h-5.1V93.4h4.4l13.6,16.4c-0.2-0.5-0.2-1.1-0.2-1.7V93.4h5.1v25.5H212
		L212,118.9z"/>
	<path d="M234.2,119.5c-9.6,0-11.7-4.4-11.7-12.5c0-7.4,2.2-14.1,11.7-14.1c9.6,0,11.9,6.8,11.9,14.1
		C246.1,115.1,243.8,119.5,234.2,119.5z M234.2,97.2c-5.1,0-6.5,3.2-6.5,9.7c0,7.3,1.5,8.2,6.5,8.2c5.1,0,6.6-0.9,6.6-8.2
		C240.9,100.4,239.4,97.2,234.2,97.2z"/>
	<path d="M264.5,118.9h-5.3l-10-25.5h5.4l6.7,17.4c0.3,0.7,0.5,1.7,0.6,2.2c0.1-0.5,0.3-1.5,0.5-2.2l6.7-17.4h5.3L264.5,118.9z"/>
	<path d="M293.5,118.9l-2.4-7h-9.7l-2.4,7h-5.3l10-25.5h5.3l10,25.5H293.5z M286.8,101.5c-0.3-0.7-0.5-1.7-0.6-2.2
		c-0.1,0.5-0.3,1.5-0.5,2.2l-2.8,6.1h6.8L286.8,101.5z"/>
	<path d="M311.7,97.7v21.2h-5.2V97.7h-7.9v-4.3h21v4.3H311.7z"/>
	<path d="M325.3,118.9V93.4h5.1v25.5H325.3z"/>
	<path d="M348.3,119.5c-9.6,0-11.7-4.4-11.7-12.5c0-7.4,2.2-14.1,11.7-14.1c9.6,0,11.9,6.8,11.9,14.1
		C360.1,115.1,357.8,119.5,348.3,119.5z M348.3,97.2c-5.1,0-6.5,3.2-6.5,9.7c0,7.3,1.5,8.2,6.5,8.2c5.1,0,6.6-0.9,6.6-8.2
		C354.9,100.4,353.4,97.2,348.3,97.2z"/>
	<path d="M384.8,118.9l-13.6-16.3c0.1,0.4,0.2,0.8,0.2,1.1v15.2h-5.1V93.4h4.4l13.6,16.4c-0.2-0.5-0.2-1.1-0.2-1.7V93.4h5.1v25.5
		H384.8L384.8,118.9z"/>
</g>
<g>
	<polygon points="89.8,42.9 127.2,42.9 99.2,12.1 	"/>
	<polygon points="50.5,87.9 27.4,80.7 18.5,34.9 	"/>
	<polygon points="29.8,83 70.8,118.2 52.1,90 	"/>
	<polygon points="87.4,43.9 52.7,87.9 18.5,31.9 	"/>
	<polygon points="56.4,85.6 88.3,45.2 91.5,60 	"/>
	<polygon points="54.6,91 74.2,121.2 97.4,111.2 	"/>
	<polygon points="54.2,89.4 91.5,61.5 98.5,109.9 	"/>
	<polygon points="89.8,44.4 93,58.9 126.2,44.4 	"/>
	<polygon points="93.4,63 99.3,107.5 105.3,81.3 	"/>
	<polygon points="88.2,42.4 98.5,11.1 20.6,30.6 	"/>
	<polygon points="93.2,60.6 105.9,79.9 127.1,45.2 	"/>
</g>
</svg>
