<?xml version="1.0" encoding="utf-8"?>
<!-- Generator: Adobe Illustrator 19.2.1, SVG Export Plug-In . SVG Version: 6.00 Build 0)  -->
<svg version="1.1" id="Layer_1" xmlns="http://www.w3.org/2000/svg" xmlns:xlink="http://www.w3.org/1999/xlink" x="0px" y="0px"
	 viewBox="0 0 400 140" style="enable-background:new 0 0 400 140;" xml:space="preserve">
<g>
	<path d="M148.2,29.6h-8.4V2h8.4c9.8,0,13.7,5.8,13.7,13.5S158.2,29.6,148.2,29.6z M148.2,6.3h-3.3v19h3.3c5.8,0,8.5-3.3,8.5-9.8
		C156.7,9.3,154,6.3,148.2,6.3z"/>
	<path d="M167.6,29.6V2h5.1v27.7h-5.1V29.6z"/>
	<path d="M191,30.2c-8.8,0-12.1-5.6-12.1-14.4c0-8,2.8-14.4,12.1-14.4c6.9,0,10.3,4.2,10.7,9.1h-4.6c-0.3-2.6-2.3-4.7-6.1-4.7
		c-5.5,0-6.9,3.6-6.9,10c0,6,1.3,10.1,6.9,10.1c2,0,4.3-0.7,5.5-1.5v-4.8c0-0.3,0.1-0.5,0.2-0.8h-5.3l-1.2-4.3h11.4v11.6
		C199.4,28,195.9,30.2,191,30.2z"/>
	<path d="M208.5,29.6V2h5.1v27.7h-5.1V29.6z"/>
	<path d="M232.4,6.3v23.4h-5.2V6.3h-7.9V2h21v4.3H232.4z"/>
	<path d="M259.9,29.6l-2.4-7h-9.7l-2.4,7h-5.3l10-27.7h5.3l10,27.7H259.9z M253.2,10.1c-0.3-0.7-0.5-1.7-0.6-2.2
		c-0.1,0.5-0.3,1.5-0.5,2.2l-2.8,8.3h6.8L253.2,10.1z"/>
	<path d="M270.4,29.6V2h5.1v23h11.1v4.7L270.4,29.6L270.4,29.6z"/>
</g>
<g>
	<path d="M150,79.7c-5.7,0-8.5-2.7-10.2-5.5l4.3-2.2c1.2,1.8,3,3.3,6,3.3c4.3,0,5.6-1.8,5.6-4.3c0-1.8-0.8-3.1-3.3-3.5l-5.6-0.9
		c-4-0.7-6.6-2.8-6.6-7.8c0-4,2.8-7.9,10.1-7.9c5.7,0,8.2,2.1,10,5l-4.3,2.2c-1.2-1.8-2.8-2.8-5.7-2.8c-3.7,0-5,1.4-5,3.5
		c0,2,0.7,2.6,2.6,2.9l5.5,0.9c4.1,0.7,7.5,2.8,7.5,8.4C160.9,76,157.6,79.7,150,79.7z"/>
	<path d="M177.3,79.6c-9.6,0-11.7-6.6-11.7-14.7c0-7.4,2.2-14.1,11.7-14.1c9.6,0,11.9,6.8,11.9,14.1
		C189.1,73.1,186.8,79.6,177.3,79.6z M177.3,55.2c-5.1,0-6.5,3.2-6.5,9.7c0,7.3,1.5,10.4,6.5,10.4c5.1,0,6.6-3.1,6.6-10.4
		C183.9,58.4,182.4,55.2,177.3,55.2z"/>
	<path d="M206.2,79.7c-9.6,0-11.8-6.9-11.8-14.5c0-8.5,2.9-14.4,11.8-14.4c6.9,0,10.1,4.1,10.4,9.1h-4.9c-0.4-3-1.8-4.7-5.6-4.7
		c-5.5,0-6.6,3.6-6.6,10c0,5.8,0.9,10.2,6.6,10.2c2.7,0,5-1,6.8-4.5l3.8,2.3C215.3,76.8,212.2,79.7,206.2,79.7z"/>
	<path d="M222.5,79.1V51.4h5.1v27.7C227.6,79.1,222.5,79.1,222.5,79.1z"/>
	<path d="M252.6,79.1l-2.4-7h-9.7l-2.4,7h-5.3l10-27.7h5.3l10,27.7H252.6z M245.9,59.5c-0.3-0.7-0.5-1.7-0.6-2.2
		c-0.1,0.5-0.3,1.5-0.5,2.2l-2.8,8.3h6.8L245.9,59.5z"/>
	<path d="M263,79.1V51.4h5.1v23h11.2v4.7H263L263,79.1z"/>
</g>
<g>
	<path d="M139.8,128.5v-27.7h5.1v27.7H139.8z"/>
	<path d="M170.4,128.5L156.8,110c0.1,0.4,0.2,0.8,0.2,1.1v17.4h-5.1v-27.7h4.4l13.6,18.6c-0.2-0.5-0.2-1.1-0.2-1.7v-16.9h5.1v27.7
		H170.4L170.4,128.5z"/>
	<path d="M200.2,128.5L186.6,110c0.1,0.4,0.1,0.8,0.1,1.1v17.4h-5.1v-27.7h4.4l13.6,18.6c-0.2-0.5-0.2-1.1-0.2-1.7v-16.9h5.1v27.7
		H200.2L200.2,128.5z"/>
	<path d="M222.4,129.1c-9.6,0-11.7-6.6-11.7-14.7c0-7.4,2.2-14.1,11.7-14.1c9.6,0,11.9,6.8,11.9,14.1
		C234.3,122.5,232,129.1,222.4,129.1z M222.4,104.6c-5.1,0-6.5,3.2-6.5,9.7c0,7.3,1.5,10.4,6.5,10.4c5.1,0,6.6-3.1,6.6-10.4
		C229.1,107.8,227.6,104.6,222.4,104.6z"/>
	<path d="M252.7,128.5h-5.3l-10-27.7h5.4l6.7,19.6c0.3,0.7,0.5,1.7,0.6,2.2c0.1-0.5,0.3-1.5,0.5-2.2l6.7-19.6h5.3L252.7,128.5z"/>
	<path d="M281.7,128.5l-2.4-7h-9.7l-2.4,7h-5.3l10-27.7h5.3l10,27.7H281.7z M275,108.9c-0.3-0.7-0.5-1.7-0.6-2.2
		c-0.1,0.5-0.3,1.5-0.5,2.2l-2.8,8.3h6.8L275,108.9z"/>
	<path d="M299.9,105.1v23.4h-5.2v-23.4h-7.9v-4.3h21v4.3H299.9z"/>
	<path d="M313.5,128.5v-27.7h5.1v27.7H313.5z"/>
	<path d="M336.5,129.1c-9.6,0-11.7-6.6-11.7-14.7c0-7.4,2.2-14.1,11.7-14.1c9.6,0,11.9,6.8,11.9,14.1
		C348.3,122.5,346,129.1,336.5,129.1z M336.5,104.6c-5.1,0-6.5,3.2-6.5,9.7c0,7.3,1.5,10.4,6.5,10.4c5.1,0,6.6-3.1,6.6-10.4
		C343.1,107.8,341.6,104.6,336.5,104.6z"/>
	<path d="M373,128.5L359.4,110c0.1,0.4,0.2,0.8,0.2,1.1v17.4h-5.1v-27.7h4.4l13.6,18.6c-0.2-0.5-0.2-1.1-0.2-1.7v-16.9h5.1v27.7H373
		L373,128.5z"/>
</g>
<polygon points="81.5,39.2 123.7,39.2 92.1,4.5 "/>
<polygon points="37.3,89.9 11.3,81.8 1.3,30.2 "/>
<polygon points="14,84.4 60.1,124 39.1,92.2 "/>
<polygon points="78.8,40.3 39.8,89.9 1.3,26.8 "/>
<polygon points="43.9,87.3 79.9,41.8 83.5,58.4 "/>
<polygon points="41.9,93.3 64,127.4 90.1,116.1 "/>
<polygon points="41.4,91.5 83.5,60.1 91.3,114.6 "/>
<polygon points="81.5,40.9 85.1,57.2 122.5,40.9 "/>
<polygon points="85.6,61.8 92.2,111.9 99,82.4 "/>
<polygon points="79.8,38.6 91.3,3.4 3.6,25.3 "/>
<polygon points="85.4,59.1 99.7,80.9 123.5,41.8 "/>
</svg>
