<?xml version="1.0" encoding="utf-8"?>
<!-- Generator: Adobe Illustrator 19.2.1, SVG Export Plug-In . SVG Version: 6.00 Build 0)  -->
<svg version="1.1" id="Layer_1" xmlns="http://www.w3.org/2000/svg" xmlns:xlink="http://www.w3.org/1999/xlink" x="0px" y="0px"
	 viewBox="0 0 300 300" style="enable-background:new 0 0 300 300;" xml:space="preserve">
<style type="text/css">
	.st0{fill:#CCCCCC;}
</style>
<polygon class="st0" points="194,89.1 292.8,89.1 218.8,7.8 "/>
<polygon class="st0" points="90.5,207.8 29.6,188.8 6.2,68 "/>
<polygon class="st0" points="35.9,194.9 143.9,287.6 94.7,213.2 "/>
<polygon class="st0" points="187.7,91.6 96.3,207.8 6.2,60 "/>
<polygon class="st0" points="105.9,201.7 190.2,95.1 198.7,134 "/>
<polygon class="st0" points="101.3,215.7 153,295.6 214.1,269.1 "/>
<polygon class="st0" points="100.1,211.5 198.7,138 216.9,265.6 "/>
<polygon class="st0" points="194,93 202.4,131.2 290,93 "/>
<polygon class="st0" points="203.6,142 219,259.3 235,190.2 "/>
<polygon class="st0" points="190,87.6 216.9,5.2 11.6,56.5 "/>
<polygon class="st0" points="203.1,135.6 236.6,186.7 292.3,95.1 "/>
</svg>
