<?xml version="1.0" encoding="iso-8859-1"?>
<!-- Generator: Adobe Illustrator 16.0.0, SVG Export Plug-In . SVG Version: 6.00 Build 0)  -->
<!DOCTYPE svg PUBLIC "-//W3C//DTD SVG 1.1//EN" "http://www.w3.org/Graphics/SVG/1.1/DTD/svg11.dtd">
<svg xmlns="http://www.w3.org/2000/svg" xmlns:xlink="http://www.w3.org/1999/xlink" version="1.1" id="Capa_1" x="0px" y="0px" width="512px" height="512px" viewBox="0 0 31.398 31.398" style="enable-background:new 0 0 31.398 31.398;" xml:space="preserve">
<g>
	<path d="M24.709,22.047c-1.034,0-1.981,0.347-2.756,0.915l-10.666-6.522c0.04-0.242,0.075-0.486,0.075-0.74   c0-0.253-0.035-0.496-0.075-0.738l10.667-6.524c0.772,0.568,1.721,0.915,2.754,0.915c2.584,0,4.678-2.093,4.678-4.677   C29.387,2.094,27.293,0,24.709,0c-2.582,0-4.676,2.094-4.676,4.676c0,0.253,0.036,0.497,0.075,0.74L9.442,11.938   c-0.773-0.568-1.72-0.915-2.754-0.915c-2.583,0-4.677,2.094-4.677,4.676c0,2.583,2.094,4.677,4.677,4.677   c1.034,0,1.98-0.347,2.754-0.915l10.666,6.521c-0.039,0.243-0.075,0.486-0.075,0.739c0,2.583,2.094,4.677,4.676,4.677   c2.584,0,4.678-2.095,4.678-4.677C29.386,24.14,27.291,22.047,24.709,22.047z" fill="#FFFFFF"/>
</g>
<g>
</g>
<g>
</g>
<g>
</g>
<g>
</g>
<g>
</g>
<g>
</g>
<g>
</g>
<g>
</g>
<g>
</g>
<g>
</g>
<g>
</g>
<g>
</g>
<g>
</g>
<g>
</g>
<g>
</g>
</svg>
